<svg xmlns="http://www.w3.org/2000/svg" viewBox="0 0 755.98 226.01"><defs><style>.a{fill:#00aeef}</style></defs><title>TIE-logo-text</title><path class="a" d="M202.29 45.57c25 33.09 27.32 86.19 7.31 122-16.55 32.32-50 51.95-83.11 57.33-38.48 5.39-70.8-8.85-97-35C5.28 161.78-4.34 129.07 1.83 90.98c7.31-1.54 15.78-.77 23.86-.77.77 33.86 1.92 68.11 31.55 90.43 20.38 16.15 46.93 23.85 74.59 17.31 23.09-5.77 46.56-24.63 57.33-46.95 14.24-30.4 11.16-71.19-13.08-96.2-23.47-26.55-60-36.17-93.89-24.63-4.07 1.18-3.83 1.9-8.46 2.69-.41-9 .07-17.87 0-26.93 46.6-15.38 98.54-.38 128.56 39.64z"/><path class="a" d="M48.76 19.02c2.23 17.87 4.61 37.71-14.62 46.17-6.54 3.46-15.16 1.62-23.09 1.92 4.62-18.08 19.62-37.72 37.71-48.09z"/><path d="M177.28 68.66c-15.39-20.39-36.56-34.63-62-35-15.73-1.17-33.54 5.29-38.82 16.53-4.79 14.27 4.62 19.62 9.23 25-6.16 1.15-13.36 2-20.39-.77l-1.54-62.71-5.14.57c-.42 23.16 5.71 38.9-11.79 54.84-10 9.62-24.63 8.08-38.48 8.08a3.89 3.89 0 0 0-3.08 4.62c11.36 1.08 21.56-.77 30.79 2.69 0 29.24-3.46 60 17.32 80.42 16.54 22.32 41.55 28.86 68.45 27.71 25.78-3.08 52.33-21.93 62-46.95 11.53-22.7 6.53-54.64-6.55-75.03zm-67.34-18.47c.38-3.46-9.24-7.7-1.92-10 26.16-2.69 50.79 10 65.41 33.09a59.35 59.35 0 0 1 9.23 27.7c-1.54-7.7-15-23.47-27.71-25.78-11.12-3.08-21.54 1.19-30.39 6.54-8.85 7.31-14 17.17-16.74 27.18l.48-32.53-6.83-2c6.16-3.81 11.93-14.58 8.47-24.2zm45 36.94v19.62c-5.13.36-14 3-14.62-4.62.77-7.31-1.55-18.21 6.54-20.4 4.97.52 6.97 1.93 8.1 5.4zm-33.11 55.41h-13v-23.86c1.49 8.85 6.88 16.55 13 23.86zm-55.41-60c5.88.07 6.89.07 11.16 0v59.74c-3.83 2.86-7.92 1.9-11.21 2.21v-62zm91.2 87c-17.7 15.39-47.33 20.78-69.26 10-10.78-6.93-19.62-17.7-21.16-30.4 24.16.12 37.63.12 57.33 0l.8-2.75c9.23 3.08 18.83 7.68 28.86 5.39 15.14-3.07 27.32-16.16 28.47-30.4-6.28-3.55-8.3 10.88-13.85 15-6.54 5-14.62 11.54-23.09 6.16-6.92-6.54-6.68-20.15-5.53-27.85 14-.36 29.36-.12 43.62-.67-.38 21.16-8.07 40.83-26.16 55.45zM274.02 53.1v8.64h-12.1v43.35h-10.87V61.74h-12.1V53.1h35.07z"/><path d="M280.64 68.72v4.67h.19c1.87-4.18 5.33-5.4 9.43-5.4v9.07c-8.93-.58-9.07 4.61-9.07 8.21v19.8h-10.2V68.72h9.65zM310.53 101.39h-.14c-2 3.24-4.75 4.39-8.57 4.39-4.83 0-9.07-2.88-9.07-7.92V68.72h10.15v25.2c0 3.24.58 5.62 3.82 5.62s3.82-2.38 3.82-5.62v-25.2h10.15v29.16c0 2.38.14 4.82.36 7.2h-10.52v-3.69zM334.43 93.39a10.41 10.41 0 0 0 .5 4.39c.58 1.15 1.66 1.73 3.67 1.73a3.55 3.55 0 0 0 3.74-3.74c0-7.71-17.86-6-17.86-17.57 0-7.85 7.78-10.22 14.33-10.22 6.91 0 13.18 3.31 12.6 11.16h-9.94c0-2.52-.29-4-1-4.68a3.41 3.41 0 0 0-2.59-.79c-2.23 0-3.46 1.44-3.46 3.89 0 5.76 17.86 5.47 17.86 17.14 0 6.34-5.18 11.09-13.61 11.09-8.86 0-14.76-2.23-14.18-12.39h9.94zM352.14 68.72h4.1v-5.76l10.16-4.57v10.3h5.26v6.26h-5.26v19.44c0 2.74-.07 4.54 3.24 4.54a7 7 0 0 0 1.8-.14v6.26a41.6 41.6 0 0 1-5.26.36c-8.78 0-9.94-5.83-9.94-8.06V74.98h-4.1v-6.26zM403.4 59.39c-4.1-.29-5 1.3-5 5v4.39h4.75v6.26h-4.72v30.1h-10.15V74.98h-4.54v-6.26h4.61c-.07-10.44-.94-16 11.45-16 1.22 0 2.38.07 3.6.14v6.53zM404.7 86.39c0-9.94 1.44-18.43 14.83-18.43s14.83 8.5 14.83 18.43c0 11.38-1.73 19.37-14.83 19.37s-14.83-7.95-14.83-19.37zm19.51-.58c0-7.56-.36-11.38-4.68-11.38s-4.7 3.87-4.7 11.43c0 11.09.94 13.46 4.68 13.46s4.7-2.37 4.7-13.46zM448.98 68.72v4.67h.14c1.87-4.18 5.33-5.4 9.43-5.4v9.07c-8.93-.58-9.07 4.61-9.07 8.21v19.8h-10.15V68.72h9.65zM250.26 169.08v-52h10.87v52h-10.87zM277.83 136.39h.14c2-3.24 4.75-4.39 8.57-4.39 4.82 0 9.07 2.88 9.07 7.92v29.16h-10.14v-25.05c0-3.24-.58-5.76-3.82-5.76s-3.82 2.52-3.82 5.76v25.06h-10.15v-36.37h10.15v3.67zM309.51 157.39a10.41 10.41 0 0 0 .5 4.39c.58 1.15 1.66 1.73 3.67 1.73a3.55 3.55 0 0 0 3.75-3.74c0-7.71-17.86-6-17.86-17.57 0-7.85 7.78-10.22 14.33-10.22 6.91 0 13.18 3.31 12.6 11.16h-9.94c0-2.52-.29-4-1-4.68a3.41 3.41 0 0 0-2.59-.79c-2.23 0-3.46 1.44-3.46 3.89 0 5.76 17.86 5.47 17.86 17.14 0 6.34-5.18 11.09-13.61 11.09-8.86 0-14.76-2.23-14.18-12.39h9.94zM349.26 165.39h-.14c-2 3.24-4.75 4.39-8.57 4.39-4.83 0-9.07-2.88-9.07-7.92v-29.14h10.15v25.2c0 3.24.58 5.62 3.82 5.62s3.82-2.38 3.82-5.62v-25.2h10.15v29.16c0 2.38.14 4.82.36 7.2h-10.52v-3.69zM375.03 132.72v4.67h.14c1.87-4.18 5.33-5.4 9.43-5.4v9.07c-8.93-.58-9.07 4.61-9.07 8.21v19.8h-10.15v-36.35h9.65zM398.29 117.1v8h-10.15v-8h10.15zm0 52h-10.15v-36.38h10.15v36.36zM415.35 136.39h.14c2-3.24 4.75-4.39 8.57-4.39 4.82 0 9.07 2.88 9.07 7.92v29.16h-10.14v-25.05c0-3.24-.58-5.76-3.82-5.76s-3.82 2.52-3.82 5.76v25.06H405.2v-36.37h10.15v3.67zM466.91 132.72v37.88c0 2.52.14 12.46-13.83 12.46-7.56 0-14-1.94-14.26-10.8h9.94a6.18 6.18 0 0 0 .86 3.67 3.87 3.87 0 0 0 3.38 1.44c2.52 0 3.74-2.38 3.74-6v-7h-.14a8.38 8.38 0 0 1-7.71 4.25c-11.16 0-10.66-10.23-10.66-18.43 0-8 .14-18.15 10.73-18.15 3.6 0 6.7 1.58 8.14 5h.14v-4.25h9.65zm-14.33 29.59c3.67 0 4.18-3.82 4.18-11.52 0-8-.36-12.53-4.1-12.53s-4.46 2.66-4.46 13.75c-.01 3.38-.52 10.3 4.38 10.3zM487.42 169.08v-52h28.41v8h-17.5v12.82h16.1v8H498.3v15.19h18.07v8h-28.95zM538.98 169.08v-4h-.15c-1.87 3.53-4.68 4.75-8.57 4.75-10.51 0-10.15-11.67-10.15-19.15s-.29-18.65 9.94-18.65c3.67 0 6.19 1.08 8.28 4.18h.14V117.1h10.16v52h-9.65zm-.5-18.51c0-7.27.07-12.31-4.1-12.31-4.39 0-4.32 5-4.32 12.31 0 9.14.65 13 4.32 13 3.45-.03 4.09-3.85 4.09-12.99zM572.53 165.39h-.14c-2 3.24-4.75 4.39-8.57 4.39-4.83 0-9.07-2.88-9.07-7.92v-29.14h10.15v25.2c0 3.24.58 5.62 3.82 5.62s3.82-2.38 3.82-5.62v-25.2h10.15v29.16c0 2.38.14 4.82.36 7.2h-10.52v-3.69zM607.16 145.68c0-5.4-1.37-7.2-4.54-7.2-4.32 0-4.68 3.82-4.68 11.38 0 11.09.94 13.46 4.68 13.46 3.17 0 4.68-2.88 4.68-7.63h10.15c0 9.86-5.33 14.11-14.83 14.11-13.11 0-14.83-8-14.83-19.37 0-9.94 1.44-18.43 14.83-18.43 9.36 0 14.69 4.18 14.69 13.68h-10.15zM650.15 162.31c0 2.23.29 4.54.5 6.77h-9.43l-.39-4.82h-.14a10.08 10.08 0 0 1-9.5 5.54c-7.06 0-9.65-5.26-9.65-11.59 0-12 9.29-12.53 18.72-12.38v-2.81c0-3.1-.43-5.33-4.1-5.33s-3.82 2.66-3.82 5.54h-9.94c0-4.39 1.37-7.2 3.74-8.86s5.62-2.38 9.5-2.38c12.89 0 14.54 5.54 14.54 12.17v18.15zm-18.72-4.54c0 2.59.43 5.76 3.75 5.76 6 0 5-8.06 5-12-5.01.2-8.76-.23-8.76 6.25zM652.37 132.72h4.1v-5.76l10.16-4.57v10.3h5.26v6.26h-5.26v19.44c0 2.74-.07 4.54 3.24 4.54a7 7 0 0 0 1.8-.14v6.26a41.6 41.6 0 0 1-5.26.36c-8.78 0-9.94-5.83-9.94-8.06v-22.37h-4.1v-6.26zM673.54 150.39c0-9.94 1.44-18.43 14.83-18.43s14.83 8.5 14.83 18.43c0 11.38-1.73 19.37-14.83 19.37s-14.83-7.95-14.83-19.37zm19.51-.58c0-7.56-.36-11.38-4.68-11.38s-4.68 3.82-4.68 11.38c0 11.09.94 13.46 4.68 13.46s4.69-2.32 4.69-13.41zM717.97 132.72v4.67h.14c1.87-4.18 5.33-5.4 9.43-5.4v9.07c-8.93-.58-9.07 4.61-9.07 8.21v19.8h-10.15v-36.35h9.65zM738.13 157.39a10.41 10.41 0 0 0 .5 4.39c.58 1.15 1.66 1.73 3.67 1.73a3.55 3.55 0 0 0 3.75-3.74c0-7.71-17.86-6-17.86-17.57 0-7.85 7.78-10.22 14.33-10.22 6.91 0 13.18 3.31 12.6 11.16h-9.94c0-2.52-.29-4-1-4.68a3.41 3.41 0 0 0-2.59-.79c-2.23 0-3.46 1.44-3.46 3.89 0 5.76 17.86 5.47 17.86 17.14 0 6.34-5.18 11.09-13.61 11.09-8.86 0-14.76-2.23-14.18-12.39h9.94z"/></svg>